<svg xmlns="http://www.w3.org/2000/svg" width="1200" height="675" viewBox="0 0 1200 675">
  <defs>
    <linearGradient id="g" x1="0" x2="1" y1="0" y2="1">
      <stop offset="0" stop-color="#0b1020"/>
      <stop offset="1" stop-color="#11183a"/>
    </linearGradient>
    <radialGradient id="r" cx="35%" cy="20%" r="70%">
      <stop offset="0" stop-color="#3b82f6" stop-opacity="0.35"/>
      <stop offset="1" stop-color="#3b82f6" stop-opacity="0"/>
    </radialGradient>
  </defs>

  <rect width="1200" height="675" fill="url(#g)"/>
  <rect width="1200" height="675" fill="url(#r)"/>

  <g fill="none" stroke="#ffffff" stroke-opacity="0.08">
    <path d="M80 120 H1120"/>
    <path d="M80 220 H1120"/>
    <path d="M80 320 H1120"/>
    <path d="M80 420 H1120"/>
    <path d="M80 520 H1120"/>
    <path d="M80 620 H1120"/>
    <path d="M160 80 V595"/>
    <path d="M360 80 V595"/>
    <path d="M560 80 V595"/>
    <path d="M760 80 V595"/>
    <path d="M960 80 V595"/>
  </g>

  <g>
    <text x="90" y="120" font-family="ui-sans-serif, system-ui, -apple-system, Segoe UI" font-size="40" fill="#ffffff" fill-opacity="0.9" font-weight="700">Project Screenshot</text>
    <text x="90" y="170" font-family="ui-sans-serif, system-ui, -apple-system, Segoe UI" font-size="22" fill="#ffffff" fill-opacity="0.55">Replace this with /public/images/your-image.png</text>
  </g>

  <g>
    <rect x="90" y="215" width="520" height="320" rx="20" fill="#0a0a0c" fill-opacity="0.35" stroke="#ffffff" stroke-opacity="0.12"/>
    <rect x="125" y="255" width="380" height="22" rx="11" fill="#ffffff" fill-opacity="0.10"/>
    <rect x="125" y="295" width="450" height="18" rx="9" fill="#ffffff" fill-opacity="0.08"/>
    <rect x="125" y="325" width="320" height="18" rx="9" fill="#ffffff" fill-opacity="0.08"/>
    <rect x="125" y="365" width="260" height="34" rx="17" fill="#3b82f6" fill-opacity="0.18"/>
    <rect x="125" y="415" width="140" height="26" rx="13" fill="#ffffff" fill-opacity="0.10"/>
    <rect x="280" y="415" width="160" height="26" rx="13" fill="#ffffff" fill-opacity="0.10"/>
  </g>
</svg>
